<?xml version="1.0" encoding="UTF-8" standalone="no"?>
<svg
   xmlns:dc="http://purl.org/dc/elements/1.1/"
   xmlns:cc="http://creativecommons.org/ns#"
   xmlns:rdf="http://www.w3.org/1999/02/22-rdf-syntax-ns#"
   xmlns:svg="http://www.w3.org/2000/svg"
   xmlns="http://www.w3.org/2000/svg"
   height="42.200001"
   width="300"
   xml:space="preserve"
   y="0px"
   x="0px"
   id="Layer_1"
   version="1.1"><metadata
     id="metadata4283"><rdf:RDF><cc:Work
         rdf:about=""><dc:format>image/svg+xml</dc:format><dc:type
           rdf:resource="http://purl.org/dc/dcmitype/StillImage" /><dc:title></dc:title></cc:Work></rdf:RDF></metadata><defs
     id="defs4281" /><g
     style="fill:#fc4349"
     id="g4239"><path
       id="path4241"
       d="m 0,0 13.9,0 0,41.1 L 0,41.1 0,0 Z" /><path
       id="path4243"
       d="M 18.2,0 29,0 39.7,15.8 50.4,0 l 10.9,0 0,41.1 -13.2,0 0,-14.8 -8.4,12.3 -8.4,-12.3 0,14.8 -13.1,0 0,-41.1 z" /><path
       id="path4245"
       d="M 65.5,0 76.4,0 87,15.8 97.7,0 l 10.9,0 0,41.1 -13.2,0 0,-14.8 -8.4,12.4 -8.4,-12.3 0,14.8 -13.1,0 0,-41.2 z" /><path
       id="path4247"
       d="m 128.6,42.2 c -2.6,0 -4.9,-0.3 -7,-1 -2.1,-0.7 -3.9,-1.6 -5.4,-3 -1.5,-1.3 -2.6,-3 -3.4,-5 -0.8,-2 -1.2,-4.4 -1.2,-7.1 l 0,-26.1 13.1,0 0,25.6 c 0,1.4 0.3,2.5 0.9,3.3 0.6,0.8 1.6,1.1 3,1.1 1.4,0 2.4,-0.4 3,-1.1 0.6,-0.8 0.9,-1.9 0.9,-3.3 l 0,-25.6 13.2,0 0,26.1 c 0,2.7 -0.4,5.1 -1.2,7.1 -0.8,2 -2,3.7 -3.5,5 -1.5,1.3 -3.3,2.3 -5.4,3 -2.1,0.6 -4.4,1 -7,1 z" /><path
       id="path4249"
       d="m 155.4,10.8 -7.6,0 0,-10.8 28.7,0 0,10.8 -7.6,0 0,30.3 -13.6,0 0,-30.3 z" /><path
       id="path4251"
       d="m 186.4,0 9.9,0 15.6,41.1 -12.9,0 -1.4,-3.7 -12.5,0 -1.4,3.7 -12.9,0 L 186.4,0 Z m 7.7,28.4 -2.8,-7.2 -2.8,7.2 5.6,0 z" /><path
       id="path4253"
       d="M 212.9,0 229,0 c 2.1,0 3.9,0.2 5.6,0.7 1.7,0.5 3.2,1.2 4.4,2.1 1.2,0.9 2.2,2.1 2.8,3.5 0.7,1.4 1,3 1,4.8 0,1.3 -0.2,2.4 -0.5,3.4 -0.3,0.9 -0.7,1.7 -1,2.3 -0.5,0.7 -1,1.4 -1.5,1.8 0.9,0.6 1.7,1.3 2.5,2.2 0.6,0.8 1.2,1.8 1.7,3 0.5,1.2 0.8,2.7 0.8,4.4 0,2 -0.3,3.8 -1,5.4 -0.7,1.6 -1.7,3 -3,4.1 -1.3,1.1 -2.9,2 -4.7,2.6 -1.9,0.6 -4,0.9 -6.3,0.9 L 213,41.2 213,0 Z m 17.3,12.5 c 0,-1.9 -1,-2.8 -3.1,-2.8 l -1.5,0 0,5.7 1.5,0 c 2.1,0 3.1,-1 3.1,-2.9 z m -3.1,18.9 c 3.1,0 4.7,-1.2 4.7,-3.6 0,-2.4 -1.6,-3.6 -4.7,-3.6 l -1.5,0 0,7.2 1.5,0 z" /><path
       id="path4255"
       d="m 248.3,0 13.7,0 0,30.3 11.3,0 0,10.8 -25,0 0,-41.1 z" /><path
       id="path4257"
       d="m 275.3,0 24.2,0 0,10.8 -11.1,0 0,4.6 10.9,0 0,10.2 -10.9,0 0,4.7 11.6,0 0,10.8 -24.7,0 0,-41.1 z" /></g><g
     style="fill:#2c3e50"
     id="g4259"><path
       id="path4261"
       d="m 0,0 13.9,0 0,41.1 L 0,41.1 0,0 Z m 7.8,36.2 0,-31.3 -1.6,0 0,31.3 1.6,0 z" /><path
       id="path4263"
       d="M 18.2,0 29,0 39.7,15.8 50.4,0 l 10.9,0 0,41.1 -13.2,0 0,-14.8 -8.4,12.3 -8.4,-12.3 0,14.8 -13.1,0 0,-41.1 z m 7.7,36.2 0,-28.3 13.8,20.1 13.8,-20.1 0,28.3 1.6,0 0,-31.3 -1.6,0 -13.8,20.3 -13.8,-20.3 -1.6,0 0,31.3 1.6,0 z" /><path
       id="path4265"
       d="M 65.5,0 76.4,0 87,15.8 97.7,0 l 10.9,0 0,41.1 -13.2,0 0,-14.8 -8.4,12.4 -8.4,-12.3 0,14.8 -13.1,0 0,-41.2 z M 73.2,36.2 73.2,7.9 87,28 100.7,7.9 l 0,28.3 1.6,0 0,-31.3 -1.6,0 L 87,25.2 73.2,4.9 l -1.6,0 0,31.3 1.6,0 z" /><path
       id="path4267"
       d="m 128.6,42.2 c -2.6,0 -4.9,-0.3 -7,-1 -2.1,-0.7 -3.9,-1.6 -5.4,-3 -1.5,-1.3 -2.6,-3 -3.4,-5 -0.8,-2 -1.2,-4.4 -1.2,-7.1 l 0,-26.1 13.1,0 0,25.6 c 0,1.4 0.3,2.5 0.9,3.3 0.6,0.8 1.6,1.1 3,1.1 1.4,0 2.4,-0.4 3,-1.1 0.6,-0.8 0.9,-1.9 0.9,-3.3 l 0,-25.6 13.2,0 0,26.1 c 0,2.7 -0.4,5.1 -1.2,7.1 -0.8,2 -2,3.7 -3.5,5 -1.5,1.3 -3.3,2.3 -5.4,3 -2.1,0.6 -4.4,1 -7,1 z m 0,-7.4 c -6.2,0 -9.2,-3 -9.2,-9.1 l 0,-20.8 -1.6,0 0,20.8 c 0,3.5 0.9,6.1 2.8,7.9 1.9,1.8 4.6,2.7 8,2.7 3.5,0 6.2,-0.9 8.1,-2.7 1.9,-1.8 2.8,-4.5 2.8,-7.9 l 0,-20.8 -1.7,0 0,20.8 c 0,6 -3,9.1 -9.2,9.1 z" /><path
       id="path4269"
       d="m 155.4,10.8 -7.6,0 0,-10.8 28.7,0 0,10.8 -7.6,0 0,30.3 -13.6,0 0,-30.3 z m 7.6,25.4 0,-29.8 8.8,0 0,-1.5 -19.2,0 0,1.5 8.8,0 0,29.8 1.6,0 z" /><path
       id="path4271"
       d="m 186.4,0 9.9,0 15.6,41.1 -12.9,0 -1.4,-3.7 -12.5,0 -1.4,3.7 -12.9,0 L 186.4,0 Z m -6.4,36.2 1.2,-3.1 20.3,0 1.2,3.1 1.7,0 -11.9,-31.3 -2.3,0 -11.9,31.3 1.7,0 z m 11.3,-29.8 9.6,25.2 -19.2,0 9.6,-25.2 z m 2.8,22 -2.8,-7.2 -2.8,7.2 5.6,0 z" /><path
       id="path4273"
       d="M 212.9,0 229,0 c 2.1,0 3.9,0.2 5.6,0.7 1.7,0.5 3.2,1.2 4.4,2.1 1.2,0.9 2.2,2.1 2.8,3.5 0.7,1.4 1,3 1,4.8 0,1.3 -0.2,2.4 -0.5,3.4 -0.3,0.9 -0.7,1.7 -1,2.3 -0.5,0.7 -1,1.4 -1.5,1.8 0.9,0.6 1.7,1.3 2.5,2.2 0.6,0.8 1.2,1.8 1.7,3 0.5,1.2 0.8,2.7 0.8,4.4 0,2 -0.3,3.8 -1,5.4 -0.7,1.6 -1.7,3 -3,4.1 -1.3,1.1 -2.9,2 -4.7,2.6 -1.9,0.6 -4,0.9 -6.3,0.9 L 213,41.2 213,0 Z M 228,36.2 c 3.6,0 6.3,-0.8 8,-2.3 1.7,-1.6 2.6,-3.6 2.6,-6.2 0,-1.7 -0.4,-3 -1.1,-4 -0.7,-1 -1.5,-1.8 -2.3,-2.4 -1,-0.7 -2.2,-1.1 -3.4,-1.4 1,-0.3 1.9,-0.7 2.7,-1.4 0.7,-0.5 1.3,-1.3 1.9,-2.2 0.6,-0.9 0.8,-2.1 0.8,-3.5 0,-2.6 -0.8,-4.5 -2.5,-5.9 -1.6,-1.3 -3.9,-2 -6.7,-2 l -8.9,0 0,31.3 8.9,0 z m -7.3,-17.1 0,-12.7 7.3,0 c 2.7,0 4.6,0.6 5.8,1.8 1.2,1.2 1.8,2.7 1.8,4.6 0,1.9 -0.6,3.4 -1.8,4.6 -1.2,1.2 -3.1,1.8 -5.8,1.8 l -7.3,0 z m 0,15.6 0,-14.1 7.2,0 c 1.3,0 2.5,0.1 3.5,0.4 1.1,0.3 2,0.7 2.9,1.2 0.8,0.6 1.5,1.3 1.9,2.2 0.5,0.9 0.7,2 0.7,3.2 0,2.5 -0.8,4.3 -2.5,5.4 -1.7,1.1 -3.9,1.7 -6.6,1.7 l -7.1,0 z m 9.5,-22.2 c 0,-1.9 -1,-2.8 -3.1,-2.8 l -1.5,0 0,5.7 1.5,0 c 2.1,0 3.1,-1 3.1,-2.9 z m -3.1,18.9 c 3.1,0 4.7,-1.2 4.7,-3.6 0,-2.4 -1.6,-3.6 -4.7,-3.6 l -1.5,0 0,7.2 1.5,0 z" /><path
       id="path4275"
       d="m 248.3,0 13.7,0 0,30.3 11.3,0 0,10.8 -25,0 0,-41.1 z m 21.6,36.2 0,-1.5 -13.8,0 0,-29.8 -1.6,0 0,31.3 15.4,0 z" /><path
       id="path4277"
       d="m 275.3,0 24.2,0 0,10.8 -11.1,0 0,4.6 10.9,0 0,10.2 -10.9,0 0,4.7 11.6,0 0,10.8 -24.7,0 0,-41.1 z m 20.1,36.2 0,-1.5 -12.3,0 0,-13.5 11.7,0 0,-1.5 -11.7,0 0,-13.3 12.3,0 0,-1.5 -13.9,0 0,31.3 13.9,0 z" /></g></svg>